<?xml version="1.0" encoding="UTF-8" standalone="no"?>
<svg width="800" height="600" xmlns="http://www.w3.org/2000/svg">
  <!-- Background -->
  <rect width="800" height="600" fill="#ffffff"/>
  
  <!-- Title -->
  <text x="400" y="30" font-family="Arial" font-size="24" font-weight="bold" text-anchor="middle" fill="#333333">Account Aggregator Platform Architecture</text>
  
  <!-- Frontend -->
  <rect x="300" y="70" width="200" height="80" fill="#64b5f6" rx="5" ry="5"/>
  <text x="400" y="105" font-family="Arial" font-size="16" font-weight="bold" text-anchor="middle" fill="#ffffff">React Frontend</text>
  <text x="400" y="130" font-family="Arial" font-size="12" text-anchor="middle" fill="#ffffff">React, TypeScript, TanStack Query</text>
  
  <!-- API Gateway -->
  <rect x="300" y="180" width="200" height="50" fill="#7986cb" rx="5" ry="5"/>
  <text x="400" y="210" font-family="Arial" font-size="16" font-weight="bold" text-anchor="middle" fill="#ffffff">API Gateway / Nginx</text>
  
  <!-- Microservices -->
  <rect x="100" y="260" width="200" height="100" fill="#4db6ac" rx="5" ry="5"/>
  <text x="200" y="290" font-family="Arial" font-size="16" font-weight="bold" text-anchor="middle" fill="#ffffff">User Management Service</text>
  <text x="200" y="315" font-family="Arial" font-size="12" text-anchor="middle" fill="#ffffff">Authentication, Authorization</text>
  <text x="200" y="335" font-family="Arial" font-size="12" text-anchor="middle" fill="#ffffff">User Profiles</text>
  
  <rect x="500" y="260" width="200" height="100" fill="#4db6ac" rx="5" ry="5"/>
  <text x="600" y="290" font-family="Arial" font-size="16" font-weight="bold" text-anchor="middle" fill="#ffffff">Loan Aggregation Service</text>
  <text x="600" y="315" font-family="Arial" font-size="12" text-anchor="middle" fill="#ffffff">Bank Connection, Transactions</text>
  <text x="600" y="335" font-family="Arial" font-size="12" text-anchor="middle" fill="#ffffff">Loan Offers</text>
  
  <!-- Service Registry -->
  <rect x="300" y="390" width="200" height="50" fill="#7986cb" rx="5" ry="5"/>
  <text x="400" y="420" font-family="Arial" font-size="16" font-weight="bold" text-anchor="middle" fill="#ffffff">Eureka Service Registry</text>
  
  <!-- Databases -->
  <rect x="100" y="470" width="200" height="80" fill="#ffb74d" rx="5" ry="5"/>
  <text x="200" y="505" font-family="Arial" font-size="16" font-weight="bold" text-anchor="middle" fill="#ffffff">User Management DB</text>
  <text x="200" y="530" font-family="Arial" font-size="12" text-anchor="middle" fill="#ffffff">PostgreSQL</text>
  
  <rect x="500" y="470" width="200" height="80" fill="#ffb74d" rx="5" ry="5"/>
  <text x="600" y="505" font-family="Arial" font-size="16" font-weight="bold" text-anchor="middle" fill="#ffffff">Loan Aggregation DB</text>
  <text x="600" y="530" font-family="Arial" font-size="12" text-anchor="middle" fill="#ffffff">PostgreSQL</text>
  
  <!-- External Banks -->
  <rect x="650" y="150" width="120" height="50" fill="#ef9a9a" rx="5" ry="5"/>
  <text x="710" y="180" font-family="Arial" font-size="14" font-weight="bold" text-anchor="middle" fill="#ffffff">SBI Bank API</text>
  
  <rect x="650" y="210" width="120" height="50" fill="#ef9a9a" rx="5" ry="5"/>
  <text x="710" y="240" font-family="Arial" font-size="14" font-weight="bold" text-anchor="middle" fill="#ffffff">HDFC Bank API</text>
  
  <!-- Connections -->
  <!-- Frontend to API Gateway -->
  <line x1="400" y1="150" x2="400" y2="180" stroke="#555555" stroke-width="2"/>
  <polygon points="395,175 400,180 405,175" fill="#555555"/>
  
  <!-- API Gateway to Microservices -->
  <line x1="300" y1="205" x2="200" y2="260" stroke="#555555" stroke-width="2"/>
  <polygon points="205,255 200,260 210,260" fill="#555555"/>
  
  <line x1="500" y1="205" x2="600" y2="260" stroke="#555555" stroke-width="2"/>
  <polygon points="595,255 600,260 590,260" fill="#555555"/>
  
  <!-- Microservices to Service Registry -->
  <line x1="200" y1="360" x2="300" y2="415" stroke="#555555" stroke-width="2"/>
  <polygon points="295,410 300,415 290,415" fill="#555555"/>
  
  <line x1="600" y1="360" x2="500" y2="415" stroke="#555555" stroke-width="2"/>
  <polygon points="505,410 500,415 510,415" fill="#555555"/>
  
  <!-- Microservices to Databases -->
  <line x1="200" y1="360" x2="200" y2="470" stroke="#555555" stroke-width="2"/>
  <polygon points="195,465 200,470 205,465" fill="#555555"/>
  
  <line x1="600" y1="360" x2="600" y2="470" stroke="#555555" stroke-width="2"/>
  <polygon points="595,465 600,470 605,465" fill="#555555"/>
  
  <!-- Loan Service to Banks -->
  <line x1="670" y1="260" x2="670" y2="200" stroke="#555555" stroke-width="2"/>
  <polygon points="665,205 670,200 675,205" fill="#555555"/>
  
  <line x1="690" y1="260" x2="690" y2="210" stroke="#555555" stroke-width="2"/>
  <polygon points="685,215 690,210 695,215" fill="#555555"/>
  
  <!-- Legend -->
  <rect x="50" y="30" width="15" height="15" fill="#64b5f6" rx="2" ry="2"/>
  <text x="75" y="43" font-family="Arial" font-size="12" fill="#333333">Frontend</text>
  
  <rect x="50" y="50" width="15" height="15" fill="#7986cb" rx="2" ry="2"/>
  <text x="75" y="63" font-family="Arial" font-size="12" fill="#333333">Infrastructure</text>
  
  <rect x="50" y="70" width="15" height="15" fill="#4db6ac" rx="2" ry="2"/>
  <text x="75" y="83" font-family="Arial" font-size="12" fill="#333333">Microservices</text>
  
  <rect x="50" y="90" width="15" height="15" fill="#ffb74d" rx="2" ry="2"/>
  <text x="75" y="103" font-family="Arial" font-size="12" fill="#333333">Databases</text>
  
  <rect x="50" y="110" width="15" height="15" fill="#ef9a9a" rx="2" ry="2"/>
  <text x="75" y="123" font-family="Arial" font-size="12" fill="#333333">External APIs</text>
</svg>